<svg width="24.000000" height="24.000000" viewBox="0 0 24 24" fill="none" xmlns="http://www.w3.org/2000/svg" xmlns:xlink="http://www.w3.org/1999/xlink">
	<desc>
			Created with Pixso.
	</desc>
	<defs/>
	<path id="Vector" d="M21 6L18 6C18 4.4 17.36 2.88 16.24 1.75C15.11 0.63 13.59 0 12 0C10.4 0 8.88 0.63 7.75 1.75C6.63 2.88 6 4.4 6 6L3 6C2.2 6 1.44 6.31 0.87 6.87C0.31 7.44 0 8.2 0 9L0 19C0 20.32 0.52 21.59 1.46 22.53C2.4 23.47 3.67 23.99 5 24L19 24C20.32 23.99 21.59 23.47 22.53 22.53C23.47 21.59 23.99 20.32 24 19L24 9C24 8.2 23.68 7.44 23.12 6.87C22.55 6.31 21.79 6 21 6ZM12 2C13.06 2 14.07 2.42 14.82 3.17C15.57 3.92 16 4.93 16 6L8 6C8 4.93 8.42 3.92 9.17 3.17C9.92 2.42 10.93 2 12 2ZM22 19C22 19.79 21.68 20.55 21.12 21.12C20.55 21.68 19.79 22 19 22L5 22C4.2 22 3.44 21.68 2.87 21.12C2.31 20.55 2 19.79 2 19L2 9C2 8.73 2.1 8.48 2.29 8.29C2.48 8.1 2.73 8 3 8L6 8L6 10C6 10.26 6.1 10.51 6.29 10.7C6.48 10.89 6.73 11 7 11C7.26 11 7.51 10.89 7.7 10.7C7.89 10.51 8 10.26 8 10L8 8L16 8L16 10C16 10.26 16.1 10.51 16.29 10.7C16.48 10.89 16.73 11 17 11C17.26 11 17.51 10.89 17.7 10.7C17.89 10.51 18 10.26 18 10L18 8L21 8C21.26 8 21.51 8.1 21.7 8.29C21.89 8.48 22 8.73 22 9L22 19Z" fill="#555555" fill-opacity="1.000000" fill-rule="nonzero"/>
</svg>
