<svg width="20.307678" height="24.000000" viewBox="0 0 20.3077 24" fill="none" xmlns="http://www.w3.org/2000/svg" xmlns:xlink="http://www.w3.org/1999/xlink">
	<desc>
			Created with Pixso.
	</desc>
	<defs/>
	<path id="Vector" d="M13.77 11.12C15.3 10 16.3 8.19 16.3 6.15C16.3 2.76 13.54 0 10.15 0C6.76 0 4 2.76 4 6.15C4 8.19 5 10 6.53 11.12C2.71 12.58 0 16.29 0 20.61C0 22.48 1.51 24 3.38 24L16.92 24C18.78 24 20.3 22.48 20.3 20.61C20.3 16.29 17.58 12.58 13.77 11.12ZM5.84 6.15C5.84 3.77 7.77 1.84 10.15 1.84C12.52 1.84 14.46 3.77 14.46 6.15C14.46 8.52 12.52 10.46 10.15 10.46C7.77 10.46 5.84 8.52 5.84 6.15ZM16.92 22.15L3.38 22.15C2.53 22.15 1.84 21.46 1.84 20.61C1.84 16.03 5.57 12.3 10.15 12.3C14.73 12.3 18.46 16.03 18.46 20.61C18.46 21.46 17.77 22.15 16.92 22.15Z" fill="#555555" fill-opacity="1.000000" fill-rule="nonzero"/>
</svg>
